<?xml version="1.0" encoding="UTF-8" standalone="no"?>
<!DOCTYPE svg PUBLIC "-//W3C//DTD SVG 1.1//EN" "http://www.w3.org/Graphics/SVG/1.1/DTD/svg11.dtd">
<svg width="100%" height="100%" viewBox="0 0 80 80" version="1.1" xmlns="http://www.w3.org/2000/svg" xmlns:xlink="http://www.w3.org/1999/xlink" xml:space="preserve" xmlns:serif="http://www.serif.com/" style="fill-rule:evenodd;clip-rule:evenodd;stroke-linejoin:round;stroke-miterlimit:2;">
    <g transform="matrix(1,0,0,1,-34.7457,-228.307)">
        <g transform="matrix(0.929263,0,0,0.852464,-41.3805,156.902)">
            <rect x="81.921" y="83.763" width="86.09" height="93.846" style="fill:none;"/>
        </g>
        <g transform="matrix(0.767331,0,0,0.767331,74.7457,268.307)">
            <g transform="matrix(1,0,0,1,-45.046,-17.091)">
                <clipPath id="_clip1">
                    <rect x="0" y="0" width="90.092" height="34.182"/>
                </clipPath>
                <g clip-path="url(#_clip1)">
                    <g transform="matrix(2,0,0,2,0,0)">
                        <path d="M9.436,2.742C10.072,1.976 10.388,0.993 10.316,0C9.341,0.094 8.44,0.565 7.806,1.311C7.168,2.033 6.844,2.981 6.906,3.942C7.89,3.961 8.828,3.516 9.436,2.742M10.256,4.123C8.856,4.042 7.676,4.923 7.006,4.923C6.336,4.923 5.316,4.167 4.216,4.187C2.752,4.228 1.416,5.048 0.716,6.334C-0.784,8.934 0.316,12.807 1.776,14.924C2.486,15.93 3.336,17.129 4.466,17.09C5.596,17.051 5.946,16.39 7.236,16.39C8.526,16.39 8.906,17.09 10.026,17.065C11.146,17.04 11.926,16.057 12.626,14.965C13.131,14.219 13.525,13.404 13.796,12.545C12.425,11.938 11.534,10.576 11.526,9.077C11.543,7.753 12.233,6.524 13.356,5.821C12.644,4.803 11.497,4.174 10.256,4.121M19.186,2.105L19.186,4.96L21.466,4.96L21.466,6.845L19.186,6.845L19.186,13.6C19.186,14.608 19.636,15.122 20.636,15.122C20.91,15.117 21.184,15.097 21.456,15.062L21.456,16.962C21.01,17.034 20.558,17.068 20.106,17.062C17.746,17.062 16.836,16.145 16.836,13.846L16.836,6.89L15.046,6.89L15.046,5L16.786,5L16.786,2.107L19.186,2.105ZM29.436,16.958L26.936,16.958L22.736,5L25.226,5L28.176,14.608L28.236,14.608L31.186,5L33.626,5L29.436,16.958ZM40.416,16.958L38.256,16.958L38.256,12.058L33.616,12.058L33.616,9.9L38.246,9.9L38.246,5L40.406,5L40.406,9.9L45.046,9.9L45.046,12.058L40.416,12.058L40.416,16.958Z" style="fill-rule:nonzero;"/>
                    </g>
                </g>
            </g>
        </g>
    </g>
</svg>
