<?xml version="1.0" encoding="UTF-8" standalone="no"?>
<!DOCTYPE svg PUBLIC "-//W3C//DTD SVG 1.1//EN" "http://www.w3.org/Graphics/SVG/1.1/DTD/svg11.dtd">
<svg width="100%" height="100%" viewBox="0 0 80 80" version="1.1" xmlns="http://www.w3.org/2000/svg" xmlns:xlink="http://www.w3.org/1999/xlink" xml:space="preserve" xmlns:serif="http://www.serif.com/" style="fill-rule:evenodd;clip-rule:evenodd;stroke-linejoin:round;stroke-miterlimit:2;">
    <g transform="matrix(1,0,0,1,-426.881,-37.0642)">
        <g transform="matrix(0.929263,0,0,0.852464,350.755,-34.3408)">
            <rect x="81.921" y="83.763" width="86.09" height="93.846" style="fill:none;"/>
        </g>
        <g transform="matrix(0.0749761,0,0,0.0749761,466.881,77.0642)">
            <g transform="matrix(1,0,0,1,-455.677,-209.047)">
                <g transform="matrix(2,0,0,2,0,0)">
                    <path d="M384.825,135.884L384.825,50.001L298.619,81.01L298.619,102.441L327.191,92.049L327.191,156.501L384.825,135.884" style="fill:rgb(1,75,147);fill-rule:nonzero;"/>
                    <path d="M351.952,0C316.5,0 284.758,17.735 265.858,44.729L281.06,55.35C296.593,33.22 322.388,18.406 351.5,18.406C398.744,18.406 436.289,57.119 436.289,104.524C436.289,151.929 398.744,190.643 351.5,190.643C322.38,190.643 296.741,175.72 281.208,153.58L265.729,164.383C284.627,191.386 315.426,209.047 350.886,209.047C408.876,209.047 455.676,162.117 455.676,104.392C455.677,46.663 409.678,0 351.952,0" style="fill:rgb(1,75,147);fill-rule:nonzero;"/>
                    <path d="M218.23,136.122C214.631,136.122 209.772,135.937 207.211,135.532L207.211,72.751C209.972,72.588 214.042,72.493 218.23,72.493C237.274,72.493 246.532,82.963 246.532,104.498C246.532,126.073 237.539,136.122 218.23,136.122M219.464,56.172C209.251,56.172 202.493,56.347 197.065,56.489C193.692,56.576 191.029,56.646 188.508,56.646L188.038,56.646L188.038,152.055L191.809,152.147C199.335,152.332 207.867,152.54 216.424,152.54C249.345,152.54 266.746,135.667 266.746,103.74C266.747,72.619 250.397,56.172 219.464,56.172M31.079,116.468L40.403,87.17C41.71,83.057 42.865,78.897 43.867,74.699C44.762,78.153 45.973,82.367 47.481,87.265L56.831,116.469L31.079,116.469L31.079,116.468ZM57.012,56.963L56.904,56.645L32.972,56.645L0.366,152.255L19.693,152.255L25.947,132.601L61.997,132.601L68.289,152.255L89.513,152.255L57.012,56.963M120.166,72.541C121.631,72.497 126.562,72.366 133.764,72.366C144.311,72.366 149.437,76.851 149.437,86.078C149.437,95.176 143.972,99.789 133.195,99.789L120.167,99.789L120.167,72.541L120.166,72.541ZM154.775,119.358C153.318,116.867 151.595,114.337 150.225,112.419C162.373,108.133 169.652,98.418 169.652,85.316C169.652,66.25 157.702,56.17 135.093,56.17C125.089,56.17 115.954,56.367 109.282,56.51C105.821,56.586 103.087,56.644 101.53,56.644L101.06,56.644L101.06,152.254L120.166,152.254L120.166,115.791L130.74,115.791L152.268,152.254L175.248,152.254L154.775,119.358" style="fill:rgb(1,75,147);fill-rule:nonzero;"/>
                </g>
                <g transform="matrix(2,0,0,2,0,0)">
                    <path d="M38.628,204.51L35.464,182.864C34.854,178.591 34.521,175.872 34.298,173.651L34.187,173.651C33.798,175.427 33.188,177.758 32.355,180.422L24.308,204.509L18.87,204.509L11.266,182.031C10.322,179.201 9.323,176.093 8.879,173.65L8.824,173.65C8.602,176.703 8.214,179.7 7.77,183.363L5.217,204.51L0,204.51L5.495,167.047L11.766,167.047L19.647,190.635C20.59,193.355 21.312,195.852 21.756,198.072L21.867,198.072C22.422,195.464 22.977,193.633 23.865,190.968L32.024,167.047L38.351,167.047L44.012,204.51L38.628,204.51ZM72.538,190.413L54.5,190.413C54.278,197.794 57.331,200.958 63.213,200.958C66.044,200.958 69.041,200.292 71.261,199.237L71.705,203.289C69.041,204.398 65.822,205.009 62.381,205.009C53.89,205.009 49.339,200.57 49.339,190.857C49.339,182.587 53.835,176.427 61.66,176.427C69.43,176.427 72.704,181.699 72.704,188.027C72.705,188.692 72.649,189.47 72.538,190.413ZM61.438,180.09C57.831,180.09 55.277,182.81 54.723,186.861L67.599,186.861C67.709,182.81 65.323,180.09 61.438,180.09ZM97.014,204.51C97.014,202.956 97.125,200.514 97.458,198.905L97.347,198.849C95.793,202.568 92.408,205.009 88.078,205.009C81.307,205.009 77.921,200.07 77.921,192.023C77.921,182.366 83.471,176.539 92.185,176.539C93.684,176.539 95.182,176.649 96.847,176.816L96.847,163.996L101.842,163.996L101.842,204.511L97.014,204.511L97.014,204.51ZM96.847,181.089C95.182,180.645 93.517,180.479 91.963,180.479C86.691,180.479 83.194,183.642 83.194,191.579C83.194,197.517 85.137,200.903 89.299,200.903C94.294,200.903 96.847,195.076 96.847,190.247L96.847,181.089ZM114.162,172.375C112.33,172.375 110.832,170.933 110.832,169.101C110.832,167.326 112.331,165.882 114.162,165.882C115.993,165.882 117.492,167.27 117.492,169.101C117.492,170.877 115.994,172.375 114.162,172.375ZM111.665,204.51L111.665,176.926L116.66,176.926L116.66,204.51L111.665,204.51ZM141.19,204.51C141.19,202.568 141.19,200.57 141.468,199.016L141.357,199.016C140.025,202.401 136.529,205.009 131.978,205.009C127.427,205.009 124.319,202.568 124.319,198.183C124.319,192.133 130.479,188.304 140.913,188.304L140.913,186.25C140.913,182.421 139.414,180.367 134.864,180.367C132.256,180.367 128.926,181.2 126.539,182.642L126.039,178.369C128.703,177.259 132.033,176.371 135.696,176.371C143.633,176.371 145.908,180.09 145.908,185.584L145.908,196.573C145.908,199.181 145.964,202.123 146.019,204.51L141.19,204.51ZM140.913,191.8C131.311,191.8 129.203,194.742 129.203,197.239C129.203,199.57 130.868,201.068 133.421,201.068C137.917,201.068 140.914,196.629 140.914,192.299L140.914,191.8L140.913,191.8ZM164.278,204.954C158.617,204.954 156.897,202.623 156.897,196.684L156.897,180.811L151.236,180.811L151.236,176.925L156.897,176.925L156.897,167.99L161.892,166.602L161.892,176.924L169.607,176.924L169.607,180.81L161.892,180.81L161.892,194.907C161.892,199.458 162.725,200.679 165.833,200.679C167.109,200.679 168.497,200.456 169.607,200.179L169.607,204.397C167.854,204.759 166.068,204.946 164.278,204.954ZM194.303,204.51L194.303,186.695C194.303,182.81 193.248,180.535 189.585,180.535C185.034,180.535 181.759,185.141 181.759,191.246L181.759,204.511L176.764,204.511L176.764,163.996L181.759,163.996L181.759,177.038C181.759,178.814 181.648,181.09 181.259,182.533L181.37,182.588C182.979,178.815 186.365,176.372 190.972,176.372C197.299,176.372 199.297,180.312 199.297,185.196L199.297,204.51L194.303,204.51ZM229.823,190.413L211.785,190.413C211.563,197.794 214.616,200.958 220.499,200.958C223.33,200.958 226.326,200.292 228.547,199.237L228.99,203.289C226.326,204.398 223.107,205.009 219.667,205.009C211.175,205.009 206.624,200.57 206.624,190.857C206.624,182.587 211.119,176.427 218.945,176.427C226.715,176.427 229.989,181.699 229.989,188.027C229.989,188.692 229.934,189.47 229.823,190.413ZM218.722,180.09C215.115,180.09 212.562,182.81 212.007,186.861L224.883,186.861C224.995,182.81 222.608,180.09 218.722,180.09ZM252.855,204.51L242.643,190.302L242.643,204.51L237.648,204.51L237.648,163.995L242.643,163.995L242.643,189.025L252.355,176.925L258.405,176.925L247.804,189.524L259.237,204.509L252.855,204.509L252.855,204.51Z" style="fill:rgb(1,75,147);fill-rule:nonzero;"/>
                </g>
            </g>
        </g>
    </g>
</svg>
