<?xml version="1.0" encoding="UTF-8" standalone="no"?>
<!DOCTYPE svg PUBLIC "-//W3C//DTD SVG 1.1//EN" "http://www.w3.org/Graphics/SVG/1.1/DTD/svg11.dtd">
<svg width="100%" height="100%" viewBox="0 0 80 80" version="1.1" xmlns="http://www.w3.org/2000/svg" xmlns:xlink="http://www.w3.org/1999/xlink" xml:space="preserve" xmlns:serif="http://www.serif.com/" style="fill-rule:evenodd;clip-rule:evenodd;stroke-linejoin:round;stroke-miterlimit:2;">
    <g transform="matrix(1,0,0,1,-34.7457,-324.907)">
        <g transform="matrix(0.929263,0,0,0.852464,-41.3805,253.502)">
            <rect x="81.921" y="83.763" width="86.09" height="93.846" style="fill:none;"/>
        </g>
        <g transform="matrix(0.187873,0,0,0.187873,74.7457,364.907)">
            <g transform="matrix(1,0,0,1,-194.96,-33.81)">
                <clipPath id="_clip1">
                    <rect x="0" y="0" width="389.92" height="67.62"/>
                </clipPath>
                <g clip-path="url(#_clip1)">
                    <g id="Calque_2" transform="matrix(2,0,0,2,0,0)">
                        <g id="Calque_1-2">
                            <path d="M20,5.68C27.7,5.68 37.19,7.79 37.19,15.47L37.19,33.81L23.6,33.81L23.6,25.9C23.6,25.9 20.3,27.06 17.77,27.84C16.07,28.31 14.77,29.27 14.68,31C14.54,32.47 16.2,33.81 16.19,33.81L2.88,33.81C1.127,33.14 -0.027,31.436 -0,29.56C0.28,23.5 5,21.27 16.62,19.93C22.88,19.15 23.62,18.55 23.62,16.98C23.62,15.69 22.85,14.22 19.3,14.17C14.19,14.17 14.55,17.63 14.55,17.62L1.55,17.62C1.55,17.62 1.64,5.7 20,5.68M61.2,6C58.568,6.371 56.281,8.014 55.09,10.39L55.09,6.47L42.43,6.47L42.43,33.81L56.24,33.81L56.24,20.72C56.24,18.4 56.9,17.37 57.75,16.54C58.965,15.432 60.566,14.839 62.21,14.89L66.1,14.89L66.1,6.47C64.538,5.877 62.846,5.715 61.2,6M88.76,0L75.09,0L75.09,6.47L69.41,6.47L69.41,14.89L75.09,14.89L75.09,26C75.09,28.4 75.09,30.37 76.81,32.25C78.36,33.83 80.38,33.76 82.81,33.77L88.81,33.77L88.81,14.89L97,14.89L97,6.47L88.8,6.47L88.76,0ZM118.61,5.9C141.53,6.15 137.83,26.9 137.81,26.9L113.36,26.9L113.36,33.81L103.36,33.81C103.36,33.81 99.26,30.09 99.36,22.73C99.48,5.59 117.89,5.88 118.61,5.9M124.61,20C124.61,20 125.18,14.4 118.61,14.39C112.3,14.35 113,20 113,20L124.58,20" style="fill:rgb(250,72,28);fill-rule:nonzero;"/>
                            <path d="M164.09,5.9L154.69,5.9L154.69,11.24L150.69,11.24L150.69,18.24L154.69,18.24L154.69,27.44C154.69,29.44 154.69,31.05 156.11,32.61C157.38,33.91 159.05,33.85 161.04,33.86L164.09,33.86L164.09,18.19L169.5,18.19L169.5,11.19L164.09,11.19L164.09,5.9Z" style="fill:rgb(250,72,28);fill-rule:nonzero;"/>
                            <rect x="141.3" y="26.9" width="6.91" height="6.91" style="fill:rgb(250,72,28);"/>
                            <path d="M171.08,11.13L180.42,11.13L183.06,24.79L185.62,11.13L195,11.13L187.65,33.81L178.47,33.81L171.08,11.13Z" style="fill:rgb(250,72,28);fill-rule:nonzero;"/>
                        </g>
                    </g>
                </g>
            </g>
        </g>
    </g>
</svg>
