<?xml version="1.0" encoding="UTF-8" standalone="no"?>
<!DOCTYPE svg PUBLIC "-//W3C//DTD SVG 1.1//EN" "http://www.w3.org/Graphics/SVG/1.1/DTD/svg11.dtd">
<svg width="100%" height="100%" viewBox="0 0 80 80" version="1.1" xmlns="http://www.w3.org/2000/svg" xmlns:xlink="http://www.w3.org/1999/xlink" xml:space="preserve" xmlns:serif="http://www.serif.com/" style="fill-rule:evenodd;clip-rule:evenodd;stroke-linejoin:round;stroke-miterlimit:2;">
    <g transform="matrix(1,0,0,1,-231.707,-132.686)">
        <g transform="matrix(0.929263,0,0,0.852464,155.581,61.2806)">
            <rect x="81.921" y="83.763" width="86.09" height="93.846" style="fill:none;"/>
        </g>
        <g transform="matrix(0.122349,0,0,0.122349,271.707,172.686)">
            <g transform="matrix(1,0,0,1,-303,-52)">
                <g transform="matrix(2,0,0,2,0,0)">
                    <path d="M62.177,26.065C62.177,17.38 69.188,10.37 77.872,10.37C84.204,10.37 89.269,13.897 91.847,19.008L85.425,22.174C84.069,19.279 81.309,17.109 77.872,17.109C73.168,17.109 69.323,21 69.323,26.065C69.323,31.13 73.168,35.067 77.872,35.067C81.309,35.067 84.069,32.896 85.425,30.002L91.847,33.168C89.269,38.279 84.204,41.806 77.872,41.806C69.188,41.806 62.177,34.795 62.177,26.065ZM94.338,18.737L101.077,18.737L101.077,22.399C102.298,20.093 104.197,18.737 106.506,18.737L108.405,18.737L108.405,25.387L106.188,25.387C102.976,25.387 101.484,27.15 101.484,30.273L101.484,41.353L94.338,41.353L94.338,18.737ZM110.754,31.672L110.754,18.737L117.9,18.737L117.9,31.672C117.9,34.16 119.484,35.699 121.88,35.699C124.275,35.699 125.86,34.16 125.86,31.672L125.86,18.737L133.006,18.737L133.006,31.672C133.006,37.687 128.301,41.803 121.88,41.803C115.458,41.803 110.754,37.687 110.754,31.672ZM136.4,18.737L143.41,18.737L143.41,21.496C144.995,19.686 147.208,18.512 149.789,18.512C155.307,18.512 158.926,22.538 158.926,28.328L158.926,41.353L151.78,41.353L151.78,28.328C151.78,25.929 150.017,24.119 147.665,24.119C145.312,24.119 143.549,25.929 143.549,28.328L143.549,41.353L136.403,41.353L136.403,18.737L136.4,18.737ZM178.691,32.126L184.526,34.885C182.671,38.954 178.647,41.806 173.761,41.806C167.158,41.806 161.864,36.559 161.864,30.045C161.864,23.531 167.158,18.284 173.761,18.284C178.691,18.284 182.717,21.178 184.573,25.248L178.694,28.053C177.926,25.972 176.024,24.526 173.764,24.526C170.78,24.526 168.517,26.968 168.517,30.045C168.517,33.121 170.78,35.563 173.764,35.563C175.981,35.563 177.88,34.16 178.694,32.126L178.691,32.126ZM186.832,10.823L193.978,10.823L193.978,21.453C195.563,19.643 197.733,18.512 200.221,18.512C205.739,18.512 209.359,22.538 209.359,28.328L209.359,41.353L202.213,41.353L202.213,28.328C202.213,25.929 200.449,24.119 198.097,24.119C195.745,24.119 193.981,25.929 193.981,28.328L193.981,41.353L186.835,41.353L186.835,10.823L186.832,10.823ZM222.337,32.215L227.131,18.737L234.277,18.737L225.14,42.709C223.241,47.685 220.254,49.809 215.188,49.809L211.933,49.809L211.933,43.566L215.188,43.566C217.134,43.566 218.129,42.752 218.672,41.396L209.67,18.737L217.312,18.737L222.334,32.215L222.337,32.215ZM236.087,18.737L242.826,18.737L242.826,22.399C244.047,20.093 245.946,18.737 248.255,18.737L250.154,18.737L250.154,25.387L247.938,25.387C244.725,25.387 243.233,27.15 243.233,30.273L243.233,41.353L236.087,41.353L236.087,18.737ZM251.15,30.045C251.15,23.577 256.443,18.284 263.136,18.284C269.829,18.284 275.122,23.577 275.122,30.045C275.122,36.513 269.829,41.806 263.136,41.806C256.443,41.806 251.15,36.559 251.15,30.045ZM257.8,30.045C257.8,33.211 260.152,35.563 263.136,35.563C266.12,35.563 268.472,33.211 268.472,30.045C268.472,26.879 266.12,24.526 263.136,24.526C260.152,24.526 257.8,26.879 257.8,30.045ZM286.427,41.353C280.502,41.353 278.06,38.729 278.06,33.121L278.06,10.823L285.206,10.823L285.206,33.121C285.206,34.388 285.749,35.113 287.016,35.113L288.19,35.113L288.19,41.356L286.427,41.356L286.427,41.353ZM298.367,41.353C292.442,41.353 290,38.729 290,33.121L290,10.823L297.146,10.823L297.146,33.121C297.146,34.388 297.689,35.113 298.956,35.113L300.13,35.113L300.13,41.356L298.367,41.356L298.367,41.353ZM7.817,28.873C7.83,17.223 17.285,7.787 28.935,7.799C40.089,7.811 49.211,16.477 49.957,27.437C49.985,26.968 50,26.496 50,26.025C50.012,12.768 39.281,2.012 26.025,2C12.768,1.988 2.012,12.722 2,25.975C1.988,39.232 12.722,49.988 25.975,50C26.524,50 27.067,49.981 27.606,49.948C16.554,49.272 7.805,40.092 7.817,28.873ZM40.385,29.185C35.856,29.182 32.187,25.504 32.194,20.975C32.197,17.424 34.459,14.402 37.619,13.265C35.119,11.945 32.27,11.196 29.243,11.193C19.295,11.184 11.221,19.239 11.212,29.188C11.202,39.136 19.258,47.21 29.206,47.219C39.155,47.228 47.228,39.173 47.238,29.222C47.238,28.093 47.136,26.993 46.939,25.92C45.441,27.902 43.064,29.185 40.385,29.182L40.385,29.185Z" style="fill:rgb(255,94,0);fill-rule:nonzero;"/>
                </g>
            </g>
        </g>
    </g>
</svg>
