<?xml version="1.0" encoding="UTF-8" standalone="no"?>
<!DOCTYPE svg PUBLIC "-//W3C//DTD SVG 1.1//EN" "http://www.w3.org/Graphics/SVG/1.1/DTD/svg11.dtd">
<svg width="100%" height="100%" viewBox="0 0 80 80" version="1.1" xmlns="http://www.w3.org/2000/svg" xmlns:xlink="http://www.w3.org/1999/xlink" xml:space="preserve" xmlns:serif="http://www.serif.com/" style="fill-rule:evenodd;clip-rule:evenodd;stroke-linejoin:round;stroke-miterlimit:2;">
    <g transform="matrix(1,0,0,1,-231.707,-37.0642)">
        <g transform="matrix(0.929263,0,0,0.852464,155.581,-34.3408)">
            <rect x="81.921" y="83.763" width="86.09" height="93.846" style="fill:none;"/>
        </g>
        <g transform="matrix(0.0342762,0,0,0.0342762,271.707,77.0642)">
            <g transform="matrix(1,0,0,1,-1033,-565)">
                <clipPath id="_clip1">
                    <rect x="0" y="0" width="2066" height="1130"/>
                </clipPath>
                <g clip-path="url(#_clip1)">
                    <g id="Layer_1" transform="matrix(2,0,0,2,0,0)">
                        <g>
                            <path d="M162.1,220.8C130.7,211.9 80.6,200.1 25.7,214.8C15.5,217.5 8.6,222 3.7,230.5C1.3,234.8 -0.9,239.4 0.3,244.1C1.3,248.1 7.1,249.5 11.6,250.2C16,250.9 26,251.4 28.7,248.2C30.1,246.5 30.1,241.8 22.8,240.3C20.1,239.7 12.7,239.5 12.2,238.2C12.2,238.2 12.5,237.3 16.5,236.1C18.3,235.5 31.4,230.2 67.1,231.3C109.6,232.7 146.7,242.6 186,258C224.4,273.1 267.6,300.4 292.9,333C302.5,345.3 314.4,365.5 315.9,382.6C319.7,424 279.3,458.8 197.2,456C183.2,455.5 166.1,452.2 166.1,452.2L164.4,372.4C164.4,372.4 199.1,372.1 237.6,384.8C240.9,385.9 244.2,388 244.5,391.2C244.7,393.6 242.8,395.7 240.6,397.6C236.6,401.1 231.1,402.6 229.9,404.1C229,405.2 229,406.8 230.2,407.7C233.1,409.9 240.2,411.4 245,411C254.7,410.1 261.1,404.6 266,397.2C271.2,389.4 274.1,369.5 246.5,356.9C210.8,340.5 164.2,343.6 164.2,343.6C164.2,343.6 164,332.8 163.5,325.6C162.7,313.8 159.4,290.5 148.6,283.9C146.6,282.7 144.2,282.5 142.8,284.4C140.7,287.1 138.6,297.5 138.2,300.2C134.1,324.4 134.4,346 134.1,346.3C134,346.4 133.9,346.6 133.7,346.7C133.3,347 107.5,350 82.6,360.8C72.7,365.1 58.5,372.8 54.2,382.8C48.6,395.7 58.4,409.8 74.9,425.4C88.9,438.6 109.5,452.5 124.7,459.7C128.6,461.5 133.2,463.8 133.2,463.8C133.2,463.8 134.2,473 135,478.4C137.9,497.6 152.5,494.8 156.6,494C163.2,492.7 164.4,488.3 165.3,483.2C165.8,480.4 165.6,476.4 165.6,476.4C165.6,476.4 175.5,478.7 182.2,479.9C201.6,483.5 222.7,484.1 240.9,481.6C313.9,471.6 332.3,437.3 338.2,428.1C348.3,412.1 369.8,367.7 305.2,301.7C290.4,286.5 247.8,245 162.1,220.8ZM65.7,400.7C63,398 61,395 61.6,391.4C62.2,387.9 69,384.9 72.4,383.9C105.3,374.2 133.3,373.7 133.3,373.7C133.3,373.7 133,385.5 133,397.4C132.9,420 133.5,443 133.5,443C133.5,443 96.3,432.2 65.7,400.7Z" style="fill:rgb(49,103,119);fill-rule:nonzero;"/>
                            <path d="M400.3,317.6C415.7,311.6 427.7,302.9 439.7,290.5C446.8,283.3 452.9,271.6 450.7,260.8C449.6,255.5 447.1,251.8 442.7,247.9C440.5,246 435.4,243.3 431.3,242.5C430.1,242.3 428.8,242.2 428.3,241.8C427.7,241.4 427.2,240.7 426.7,239.9C424,236.5 418.6,233.2 414.8,231.9C403,227.8 387.1,230.9 376.4,235.4C365,240.2 354.5,247.3 346.5,255.9C325.5,278.4 334.7,296.2 336.6,299.5C338.2,302.3 341.1,305.3 341.8,308.3C342.2,310 341.8,312.3 341.9,314.4C342,319.1 344.1,324 347.7,327.1C350.2,329.3 353.9,330 357.6,324.4C358.8,322.5 360.9,318.7 360.9,318.7C360.9,318.7 365.2,321.2 375.5,321.9C383,322.5 393.5,320.2 400.3,317.6ZM350.8,290.4C350.8,290.4 350.1,288.9 349.6,287.8C346.4,279.9 353.4,271 359.8,265.6C372.3,255 382.9,255.2 382.9,255.2C382.9,255.2 380.4,257.2 378.3,259.1C360.1,275 350.8,290.4 350.8,290.4ZM378.1,290.1C385.7,280.3 399.8,268.1 409.7,262.2C417.4,257.6 424.1,256.3 429,258.5C432,259.8 434.3,262.5 434.7,266C436,277.1 423.2,286.3 414.7,291.3C395.3,302.6 372.3,300.1 371.7,299C371.6,298.9 376.4,292.4 378.1,290.1Z" style="fill:rgb(49,103,119);fill-rule:nonzero;"/>
                            <path d="M841.1,350.3C816.3,333.1 776.4,387.5 758.8,414.5C756.2,400.8 765.5,383.3 765.5,383.3C765.5,383.3 780.4,357.5 782.5,352.3C784.5,347 785.7,336.2 783.2,335.1C780.9,334 776.9,337.5 776.9,337.5C743.4,367.5 738.7,400.8 738.7,400.8C735.5,418.7 739.2,431.3 744.7,440.1C726.1,479.7 717,514.3 719.4,534.7C721.7,550.3 732.8,561.5 739.6,563.9C746.4,566.7 747.7,558.5 747.7,558.5C753.2,516.2 762.9,488 774.4,460.1C809.3,468.1 835.6,434.2 844.9,417.9C850.4,408.2 853.3,395.2 853.3,382.9C853.3,369.2 849.4,356.2 841.1,350.3ZM818.4,417.7C814.4,421.5 801.1,429 787.4,430.5C800.5,405.1 816.8,386.4 825.8,376.5C836.3,364.7 837.7,375.4 837.7,375.4C840.1,396.2 824.9,411.9 818.4,417.7Z" style="fill:rgb(49,103,119);fill-rule:nonzero;"/>
                            <path d="M726.4,437.8C728.1,431.5 722.3,424.5 717.1,423.2C712.2,422.2 674.8,429.2 670.3,430.4C665.5,431.7 667.6,427.2 667.6,427.2L673.4,407.6C673.4,407.6 709.2,406.2 714.4,405.4C719.2,404.5 719.5,401.1 719.5,401.1C719.5,401.1 720.1,395.5 719.9,390.3C719.4,384.7 714.9,385.2 714.9,385.2C701.1,383.8 682.1,385.4 682.1,385.4L686.9,370.4C686.9,370.4 724.9,368.6 739.4,365.2C746.8,363.4 742.5,356.2 742.5,356.2C733.5,338.2 723.1,339.2 723.1,339.2C693.2,338.2 649.7,346.1 645,348.5C640.6,350.5 641,353.8 646.8,361.1C653,368.8 663.5,368.1 663.5,368.1L654.3,387C646.8,387.5 644.2,389.9 644.2,389.9C639.9,394.5 645.8,408.1 645.8,408.1C645.8,408.1 632.8,437.2 642.2,452.6C652.3,468.7 664.3,468 664.3,468C687,469.4 724.4,445.6 726.4,437.8Z" style="fill:rgb(49,103,119);fill-rule:nonzero;"/>
                            <path d="M595.7,322.2C595.7,322.2 590.4,319.7 589.1,325C587.8,330.2 589.8,335.8 589.8,335.8C603,380.5 606,406.9 606,406.9C606,406.9 606.6,414.7 605.1,415.1C604,415.9 602.9,414.8 602.9,414.8C601.4,414.9 586.9,390.6 586.9,390.6L584.1,385.9C568.2,360.3 558.5,351.5 558.5,351.5C556.2,349.4 550.5,343.6 543.2,351.6C536,359.6 530.3,385.5 528.1,409.8C526.2,434.1 527.6,447.9 531.2,453.7C535.1,459.6 542.6,461.6 548.8,456.6C555.4,451.6 554.1,419.6 555.2,403.2C556.2,386.7 557.8,389.7 557.8,389.7C559.2,389.3 566.8,404.4 566.8,404.4C566.8,404.4 586.6,444.8 599,450.8C611.6,456.8 621.7,447.2 625.5,438.2C629.4,429.1 636,399.1 626.2,365.9C616.1,332.4 595.7,322.2 595.7,322.2Z" style="fill:rgb(49,103,119);fill-rule:nonzero;"/>
                            <path d="M390.2,407.7C389.7,396.6 388.4,368.4 385.3,355.6C384,350.1 381.7,345.1 376.3,343C375.7,342.8 375,342.6 374.5,342.5C371.1,341.8 369.2,346.5 368.3,348.8C365.6,355.7 363.7,372 363.2,377.1C361.6,392.6 360.3,429.2 363,447.9C364.1,455.7 366.7,460.8 374.6,462.5C377.8,463.2 383.7,463 386.2,461.4C388.4,460 390,457.3 390.5,454.9C392,448.4 391.4,439.2 391.1,432.2C390.8,424.2 390.6,416 390.2,407.7Z" style="fill:rgb(49,103,119);fill-rule:nonzero;"/>
                            <path d="M518.1,346C501,336.9 472.9,336.9 455.4,339.1C437.4,341.3 413.3,346.9 403.1,361.7C399.2,367.3 396.9,376 398.7,383C399.7,386.9 402.5,389.9 406.6,392C413.9,395.8 438.2,396.6 449,397.8C459.2,398.9 478,400.7 488.4,405C488.4,405 498.2,408.4 498.1,414C498.1,416.8 496,419 493.9,420.5C478.5,431.4 457.4,434.5 438.6,434.2C432.2,434.1 427,433.1 420.5,430.3C417.7,429.1 414.2,426.9 414.7,423.1C415.5,417.1 422.4,415.6 427.8,416.1C430.9,416.4 434.8,417.7 437.8,418.8C449.9,423.6 455.4,427.6 466,425.9C470,425.3 483.7,422.3 485.5,416.7C486,415.3 485.3,413.8 484.3,412.8C482.9,411.3 474.6,408.1 472.4,407.3C464.3,404.4 449,401.8 440.5,401.5C429.3,401.1 414,403.4 407.6,412.6C401.9,420.9 400.6,437.7 429.1,451.9C442.3,458.5 458.4,461.4 473.2,459.8C481.7,458.8 506,455 515.2,435.7C520.2,425.3 519.7,411.4 514.3,401.5C510.8,395 506.5,386.3 474.7,382.3C469.6,381.7 432.2,377.3 428.8,376.8C426.9,376.5 418.1,375.5 421.2,372.1C422.1,371.1 424.7,370.4 426.3,370C445.9,364.6 470.8,365.3 491.5,364.1C496.1,363.8 506.6,363.2 511.6,361.6C516.4,360.1 520.4,356.7 521.5,351.4C522.1,348.7 520.7,347.4 518.1,346Z" style="fill:rgb(49,103,119);fill-rule:nonzero;"/>
                            <path d="M1028.1,370.1L969.4,370.1C968.8,349.8 966.7,329.8 963.3,310.1C962.7,306.7 959.8,304.3 956.3,304.3L940.5,304.3C937.4,304.3 935.1,307.1 935.6,310.2C939.3,329.8 941.5,349.9 942.2,370.2L882.5,370.2C879.8,370.2 877.6,372.4 877.6,375.2L877.6,393.2C877.6,395.9 879.8,398.2 882.5,398.2L942.2,398.2C941.5,418.5 939.3,438.5 935.6,458.2C935,461.2 937.4,464.1 940.5,464.1L956.3,464.1C959.7,464.1 962.7,461.6 963.3,458.3C966.7,438.6 968.8,418.6 969.4,398.3L1028.1,398.3C1030.8,398.3 1033,396.1 1033,393.3L1033,375.3C1033,372.3 1030.8,370.1 1028.1,370.1Z" style="fill:rgb(49,103,119);fill-rule:nonzero;"/>
                            <path d="M219.2,152.4C221.5,154 224.8,152.8 227.1,150.3C247.2,128.6 269.3,109.7 294.4,92.6C459.1,-19.8 700.9,-3.4 842.4,139C888.9,185.5 914.5,235.5 927.9,274.8C928.9,277.7 931.6,279.6 934.6,279.6L950.8,279.6C954.2,279.6 956.6,276.3 955.5,273.1C937.9,221 903.8,163.9 854.3,117.4C705.8,-22.4 465.2,-37.9 297.5,76.3C270.1,94.8 242.8,118.5 218.9,145.6C216.6,148.2 217.4,151.1 219.2,152.4Z" style="fill:rgb(49,103,119);fill-rule:nonzero;"/>
                        </g>
                    </g>
                </g>
            </g>
        </g>
    </g>
</svg>
