<?xml version="1.0" encoding="UTF-8" standalone="no"?>
<!DOCTYPE svg PUBLIC "-//W3C//DTD SVG 1.1//EN" "http://www.w3.org/Graphics/SVG/1.1/DTD/svg11.dtd">
<svg width="100%" height="100%" viewBox="0 0 80 80" version="1.1" xmlns="http://www.w3.org/2000/svg" xmlns:xlink="http://www.w3.org/1999/xlink" xml:space="preserve" xmlns:serif="http://www.serif.com/" style="fill-rule:evenodd;clip-rule:evenodd;stroke-linejoin:round;stroke-miterlimit:2;">
    <g transform="matrix(1,0,0,1,-231.707,-228.307)">
        <g transform="matrix(0.929263,0,0,0.852464,155.581,156.902)">
            <rect x="81.921" y="83.763" width="86.09" height="93.846" style="fill:none;"/>
        </g>
        <g transform="matrix(0.0257495,0,0,0.0257495,271.707,268.307)">
            <g transform="matrix(1,0,0,1,-1336.6,-454.9)">
                <g transform="matrix(2,0,0,2,0,0)">
                    <rect x="0" y="0" width="1336.6" height="454.9" style="fill:rgb(51,21,91);"/>
                </g>
                <g transform="matrix(2,0,0,2,0,0)">
                    <path d="M224.4,28.4C158.2,28.4 113.3,79.3 112.8,139.2L112.8,150.8L52.7,150.8C52.7,150.8 27.5,213.6 28.4,213.4L112.8,213.4L112.8,322.2C112.8,336.4 108.3,354.3 86.9,362.8L111.8,426.5C150.5,411.3 180.8,374.2 180.9,322.2L180.9,213.4L228.6,213.4L228.6,363.8L296.6,363.8L296.6,227.8C304.2,219 317.8,211.7 341.6,209C334.8,223.8 331.2,240 331.2,256.6C331.2,290.8 343.7,321.2 368.8,342.5C387.8,358.5 413.9,368.6 447.4,368.7C469,368.7 486.2,365.5 503.4,359.1L484,307.9C475.6,311 462.9,313.7 453.2,313.7C441.3,313.7 427.5,310.1 418.6,303.8C410.5,298 404.7,289.8 401.5,279.7L526.4,279.7C530.8,304.5 542.7,326.2 562,342.6C581,358.6 607.1,368.7 640.6,368.8C662.2,368.9 679.4,365.6 696.6,359.2L677.2,308C668.8,311.1 656.1,313.8 646.4,313.8C634.5,313.8 620.7,310.2 611.8,303.9C603.7,298.1 597.9,289.9 594.7,279.8L751.2,279.8L784.2,363.9L856.4,363.9L894.4,267C896.6,297.1 909,323.6 931.6,342.7C950.6,358.7 976.7,368.8 1010.2,368.9C1031.8,368.9 1049,365.7 1066.2,359.3L1046.8,308.1C1038.4,311.2 1025.7,313.9 1016,313.9C1004.1,313.9 990.3,310.3 981.4,304C973.3,298.2 967.5,290 964.3,279.9L1089.4,279.9C1093.8,304.7 1105.7,326.4 1125,342.8C1144,358.8 1170.1,368.9 1203.6,369C1225.2,369 1242.4,365.8 1259.6,359.4L1240.2,308.2C1231.8,311.3 1219.1,314 1209.4,314C1197.5,314 1183.7,310.4 1174.8,304.1C1166.7,298.3 1160.9,290.1 1157.7,280L1308.2,280L1308.2,257.2C1308.2,206.3 1274.4,145.8 1199.6,145.8C1153.8,145.8 1119.4,169.4 1101.4,202C1085.3,170.7 1054.1,145.8 1006.2,145.8C975.7,145.8 950.2,156.3 931.3,172.9L939.8,151.2L867.8,151.2L820.2,284.8L772.2,151.2L700.5,151.2L708.5,171.5C691.1,156 667.3,145.8 636.7,145.8C590.9,145.8 556.5,169.3 538.5,201.9C522.3,170.6 491.2,145.8 443.3,145.8C409.6,145.8 382.1,158.5 362.7,178.3L362.7,145.4C345.9,145.4 326.8,151.2 309.6,164.1C304.9,167.6 300.3,171.8 296.4,176.5L296.4,151.2L180.8,151.2L180.8,139.3C180.8,111.7 200.2,94.2 226.2,94.2C230.5,94.2 234.8,95.1 238,95.9L261.7,35.8C251.2,31.4 239.6,28.4 224.4,28.4ZM444.3,200.5C464.6,200.5 483.2,209.2 487.4,232.8L400.8,232.8C404.6,214.5 417.6,200.5 444.3,200.5ZM637.7,200.5C658,200.5 676.6,209.2 680.8,232.8L594.2,232.8C598,214.5 610.9,200.5 637.7,200.5ZM1007.2,200.5C1027.5,200.5 1046.1,209.2 1050.3,232.8L963.7,232.8C967.5,214.5 980.4,200.5 1007.2,200.5ZM1200.6,200.5C1220.9,200.5 1239.5,209.2 1243.7,232.8L1157.1,232.8C1160.9,214.5 1173.8,200.5 1200.6,200.5Z" style="fill:rgb(216,255,4);fill-rule:nonzero;"/>
                </g>
            </g>
        </g>
    </g>
</svg>
