<?xml version="1.0" encoding="UTF-8" standalone="no"?>
<!DOCTYPE svg PUBLIC "-//W3C//DTD SVG 1.1//EN" "http://www.w3.org/Graphics/SVG/1.1/DTD/svg11.dtd">
<svg width="100%" height="100%" viewBox="0 0 80 80" version="1.1" xmlns="http://www.w3.org/2000/svg" xmlns:xlink="http://www.w3.org/1999/xlink" xml:space="preserve" xmlns:serif="http://www.serif.com/" style="fill-rule:evenodd;clip-rule:evenodd;stroke-linejoin:round;stroke-miterlimit:2;">
    <g transform="matrix(1,0,0,1,-133.226,-228.307)">
        <g transform="matrix(0.929263,0,0,0.852464,57.1,156.902)">
            <rect x="81.921" y="83.763" width="86.09" height="93.846" style="fill:none;"/>
        </g>
        <g transform="matrix(0.157792,0,0,0.157792,173.226,268.307)">
            <g transform="matrix(1,0,0,1,-216,-71.15)">
                <g transform="matrix(2,0,0,2,0,0)">
                    <path d="M102.07,22.2L102.07,50.91C102.07,53.45 100.02,55.51 97.47,55.51L87.5,55.51C84.96,55.51 82.9,53.45 82.9,50.91L82.9,22.2L65.74,22.2L65.74,52.34C65.74,64.66 73.62,71.15 85.27,71.15L99.7,71.15C111.35,71.15 119.23,64.66 119.23,52.34L119.23,22.2L102.07,22.2Z" style="fill:rgb(28,231,131);fill-rule:nonzero;"/>
                    <path d="M198.85,22.2L198.85,50.91C198.85,53.45 196.8,55.51 194.25,55.51L184.27,55.51C181.73,55.51 179.67,53.45 179.67,50.91L179.67,22.2L162.51,22.2L162.51,52.34C162.51,64.66 170.39,71.15 182.04,71.15L196.46,71.15C208.11,71.15 215.99,64.66 215.99,52.34L215.99,22.2L198.85,22.2Z" style="fill:rgb(28,231,131);fill-rule:nonzero;"/>
                    <path d="M33.95,22.2L22.95,22.2C19.09,22.2 17.15,23.24 17.15,23.24L17.15,0L0,0L0,71.15L17.15,71.15L17.15,42.44C17.15,39.9 19.21,37.84 21.75,37.84L31.73,37.84C34.27,37.84 36.32,39.9 36.32,42.44L36.32,71.15L53.48,71.15L53.48,40.21C53.48,27.21 44.81,22.2 33.95,22.2Z" style="fill:rgb(28,231,131);fill-rule:nonzero;"/>
                    <rect x="132.3" y="0" width="17.16" height="71.15" style="fill:rgb(28,231,131);"/>
                </g>
            </g>
        </g>
    </g>
</svg>
