<?xml version="1.0" encoding="UTF-8" standalone="no"?>
<!DOCTYPE svg PUBLIC "-//W3C//DTD SVG 1.1//EN" "http://www.w3.org/Graphics/SVG/1.1/DTD/svg11.dtd">
<svg width="100%" height="100%" viewBox="0 0 80 80" version="1.1" xmlns="http://www.w3.org/2000/svg" xmlns:xlink="http://www.w3.org/1999/xlink" xml:space="preserve" xmlns:serif="http://www.serif.com/" style="fill-rule:evenodd;clip-rule:evenodd;stroke-linejoin:round;stroke-miterlimit:2;">
    <g transform="matrix(1,0,0,1,-330.187,-37.0642)">
        <g transform="matrix(0.929263,0,0,0.852464,254.061,-34.3408)">
            <rect x="81.921" y="83.763" width="86.09" height="93.846" style="fill:none;"/>
        </g>
        <g transform="matrix(0.0320415,0,0,0.0320415,370.187,77.0642)">
            <g transform="matrix(1,0,0,1,-1024,-445)">
                <g id="Fill-1" transform="matrix(29.9865,0,0,29.9865,25.6362,25.1887)">
                    <path d="M25.113,9.45C25.113,7 23.45,5.162 21.087,5.162C18.725,5.162 17.063,7 17.063,9.45C17.063,11.9 18.725,13.737 21.087,13.737C23.45,13.737 25.112,11.9 25.112,9.45ZM30.538,9.45C30.538,14.661 26.298,18.9 21.088,18.9C15.877,18.9 11.638,14.661 11.638,9.45C11.638,4.239 15.877,0 21.088,0C26.298,0 30.538,4.239 30.538,9.45ZM0,0.525L0,5.688L4.638,5.688L4.638,19.863C4.638,21.438 3.763,22.838 2.013,22.838L0,22.837L0,28L2.013,28C6.738,28 10.063,24.281 10.063,19.731L10.063,0.525L0,0.525ZM60.463,0C58.889,0 57.161,0.442 55.913,1.99L55.913,0.525L50.488,0.525L50.488,18.375L55.913,18.375L55.913,8.225C55.913,6.563 56.788,5.162 58.529,5.162C60.288,5.162 61.163,6.563 61.163,8.137L61.163,18.375L66.588,18.375L66.588,7C66.588,2.537 64.138,0 60.463,0ZM42.787,0.525L48.212,0.525L48.212,19.731C48.212,24.281 44.887,28 40.162,28C35.525,28 32.112,24.325 32.112,20.3L37.537,20.3C37.625,21.7 38.675,22.838 40.162,22.838C41.912,22.838 42.787,21.438 42.787,19.863L42.787,16.91C41.539,18.458 39.811,18.9 38.237,18.9C34.563,18.9 32.112,16.362 32.112,11.9L32.112,0.525L37.537,0.525L37.537,10.762C37.537,12.337 38.412,13.737 40.171,13.737C41.912,13.737 42.787,12.337 42.787,10.675L42.787,0.525Z" style="fill-rule:nonzero;"/>
                </g>
            </g>
        </g>
    </g>
</svg>
