<?xml version="1.0" encoding="UTF-8" standalone="no"?>
<!DOCTYPE svg PUBLIC "-//W3C//DTD SVG 1.1//EN" "http://www.w3.org/Graphics/SVG/1.1/DTD/svg11.dtd">
<svg width="100%" height="100%" viewBox="0 0 80 80" version="1.1" xmlns="http://www.w3.org/2000/svg" xmlns:xlink="http://www.w3.org/1999/xlink" xml:space="preserve" xmlns:serif="http://www.serif.com/" style="fill-rule:evenodd;clip-rule:evenodd;stroke-linejoin:round;stroke-miterlimit:2;">
    <g transform="matrix(1,0,0,1,-133.226,-132.686)">
        <g transform="matrix(0.929263,0,0,0.852464,57.1,61.2806)">
            <rect x="81.921" y="83.763" width="86.09" height="93.846" style="fill:none;"/>
        </g>
        <g transform="matrix(0.0563126,0,0,0.0563126,173.226,172.686)">
            <g transform="matrix(1,0,0,1,-605.249,-185.504)">
                <g id="g407" transform="matrix(5.66929,0,0,5.66929,403.821,-1549.7)">
                    <g id="Layer-1" serif:id="Layer 1">
                        <g id="g4071" serif:id="g407">
                            <path id="path330" d="M47.335,319.671C46.282,318.064 44.861,316.732 43.189,315.784C44.454,314.939 45.518,313.826 46.306,312.525C47.086,311.23 47.477,309.648 47.478,307.778C47.498,306.243 47.186,304.722 46.563,303.32C45.971,302.005 45.104,300.832 44.02,299.88C42.881,298.898 41.559,298.15 40.131,297.679C38.537,297.149 36.866,296.888 35.186,296.906L15.464,296.906L15.464,336.935L36.329,336.935C38.07,336.957 39.801,336.676 41.446,336.104C42.907,335.6 44.255,334.814 45.415,333.792C46.527,332.79 47.406,331.556 47.989,330.178C48.615,328.696 48.926,327.1 48.904,325.492C48.906,323.211 48.383,321.271 47.335,319.671ZM22.896,303.206L34.614,303.206C36.329,303.206 37.663,303.616 38.617,304.436C39.572,305.257 40.048,306.467 40.046,308.066C40.046,309.664 39.57,310.922 38.617,311.839C37.665,312.757 36.331,313.213 34.614,313.21L22.896,313.21L22.896,303.206ZM40.131,329.135C39.237,330.146 37.779,330.651 35.757,330.651L22.896,330.651L22.896,319.499L35.757,319.499C37.74,319.499 39.189,320.061 40.104,321.184C41.023,322.324 41.509,323.753 41.475,325.217C41.475,326.818 41.027,328.119 40.131,329.119L40.131,329.135Z" style="fill-rule:nonzero;"/>
                            <path id="path332" d="M0.769,336.591C2.717,335.862 4.497,334.744 6,333.305C7.428,331.915 8.547,330.24 9.286,328.389C10.056,326.472 10.445,324.423 10.431,322.357L10.431,296.917L3.01,296.917L3.01,322.357C3.029,323.671 2.802,324.978 2.34,326.209C1.937,327.284 1.305,328.259 0.488,329.066C-0.336,329.864 -1.32,330.478 -2.398,330.868C-4.824,331.704 -7.461,331.704 -9.886,330.868C-10.965,330.478 -11.95,329.864 -12.775,329.066C-13.59,328.258 -14.222,327.283 -14.627,326.209C-15.084,324.974 -15.306,323.665 -15.283,322.349L-15.283,296.917L-22.726,296.917L-22.726,322.357C-22.739,324.422 -22.351,326.471 -21.583,328.389C-20.845,330.24 -19.725,331.915 -18.297,333.305C-16.801,334.739 -15.03,335.856 -13.093,336.591C-8.612,338.192 -3.712,338.192 0.769,336.591" style="fill-rule:nonzero;"/>
                            <path id="path334" d="M-49.079,336.935L-39.988,319.499C-39.458,318.509 -38.983,317.576 -38.562,316.697C-38.14,315.819 -37.74,314.952 -37.36,314.096C-36.979,313.239 -36.607,312.362 -36.244,311.466C-35.88,310.57 -35.49,309.627 -35.072,308.638L-34.844,308.638C-34.922,309.696 -34.998,310.696 -35.072,311.638C-35.151,312.572 -35.207,313.477 -35.244,314.353C-35.281,315.229 -35.31,316.136 -35.331,317.07C-35.352,318.004 -35.36,319.004 -35.36,320.071L-35.36,336.935L-27.928,336.935L-27.928,296.917L-36.215,296.917L-43.991,312.122C-44.52,313.154 -45.006,314.108 -45.449,314.983C-45.888,315.858 -46.306,316.718 -46.705,317.554C-47.105,318.39 -47.499,319.25 -47.877,320.129C-48.256,321.007 -48.671,321.938 -49.079,322.928C-49.498,321.94 -49.899,321.005 -50.28,320.123C-50.661,319.242 -51.052,318.383 -51.452,317.549C-51.852,316.713 -52.272,315.853 -52.709,314.977C-53.145,314.102 -53.632,313.149 -54.167,312.117L-61.943,296.917L-70.229,296.917L-70.229,336.935L-62.8,336.935L-62.8,320.071C-62.8,319.012 -62.809,318.012 -62.826,317.07C-62.844,316.128 -62.873,315.222 -62.914,314.353C-62.951,313.471 -63.008,312.566 -63.086,311.638C-63.163,310.71 -63.239,309.71 -63.313,308.638L-63.086,308.638C-62.705,309.627 -62.324,310.57 -61.943,311.466C-61.562,312.362 -61.18,313.239 -60.797,314.096C-60.419,314.953 -60.017,315.821 -59.599,316.697C-59.18,317.573 -58.702,318.509 -58.17,319.499L-49.079,336.935Z" style="fill-rule:nonzero;"/>
                            <rect id="rect336" x="53.707" y="296.917" width="7.432" height="40.018"/>
                            <circle id="circle338" cx="132.523" cy="305.6" r="8.766"/>
                            <circle id="circle340" cx="87.383" cy="305.6" r="8.766"/>
                            <circle id="circle342" cx="109.954" cy="305.6" r="8.766"/>
                            <circle id="circle344" cx="87.383" cy="283.116" r="8.766"/>
                            <circle id="circle346" cx="109.954" cy="283.116" r="8.766"/>
                            <circle id="circle348" cx="87.383" cy="328.087" r="8.766"/>
                            <circle id="circle350" cx="109.954" cy="328.087" r="8.766"/>
                        </g>
                    </g>
                </g>
            </g>
        </g>
    </g>
</svg>
