<?xml version="1.0" encoding="UTF-8" standalone="no"?>
<!DOCTYPE svg PUBLIC "-//W3C//DTD SVG 1.1//EN" "http://www.w3.org/Graphics/SVG/1.1/DTD/svg11.dtd">
<svg width="100%" height="100%" viewBox="0 0 80 80" version="1.1" xmlns="http://www.w3.org/2000/svg" xmlns:xlink="http://www.w3.org/1999/xlink" xml:space="preserve" xmlns:serif="http://www.serif.com/" style="fill-rule:evenodd;clip-rule:evenodd;">
    <g transform="matrix(1,0,0,1,-426.881,-132.686)">
        <g transform="matrix(0.929263,0,0,0.852464,350.755,61.2806)">
            <rect x="81.921" y="83.763" width="86.09" height="93.846" style="fill:none;"/>
        </g>
        <g transform="matrix(0.0693056,0,0,0.0693056,466.881,172.686)">
            <g transform="matrix(1,0,0,1,-535.057,-105.897)">
                <clipPath id="_clip1">
                    <rect x="0" y="0" width="1070.11" height="211.794"/>
                </clipPath>
                <g clip-path="url(#_clip1)">
                    <g transform="matrix(2,0,0,2,0,0)">
                        <path d="M105.954,87.107C105.954,97.485 97.541,105.898 87.164,105.898L18.79,105.898C8.413,105.897 0,97.485 0,87.107L0,18.79C0,8.413 8.413,0 18.79,0L87.164,0C97.541,0 105.954,8.413 105.954,18.79L105.954,87.107Z" style="fill:white;fill-rule:nonzero;"/>
                    </g>
                    <g transform="matrix(2,0,0,2,0,0)">
                        <path d="M102.239,85.84C102.239,94.854 94.932,102.16 85.919,102.16L20.035,102.16C11.022,102.16 3.715,94.853 3.715,85.84L3.715,20.057C3.715,11.044 11.022,3.737 20.035,3.737L85.919,3.737C94.932,3.737 102.239,11.044 102.239,20.057L102.239,85.84Z" style="fill:rgb(105,171,231);fill-rule:nonzero;"/>
                    </g>
                    <g transform="matrix(2,0,0,2,0,0)">
                        <path d="M113.348,14.904L133.859,14.904L155.057,54.266L155.251,54.266L154.968,44.983L154.968,14.904L175.74,14.904L175.74,91.124L155.589,91.124L134.102,50.767L133.908,50.767C134.181,56.42 134.262,62.92 134.262,62.92L134.262,91.124L113.348,91.124L113.348,14.904ZM199.995,68.598C200.325,72.783 203.333,77.733 210.057,77.733C213.235,77.733 215.761,76.753 217.35,74.085L236.363,74.085C233.182,86.296 221.209,92.584 209.489,92.584C191.762,92.584 180.584,79.857 180.584,63.584C180.584,46.223 193.283,34.421 208.994,34.421C225.451,34.421 238.244,46.921 237.101,68.599L199.995,68.599L199.995,68.598ZM217.581,57.177C217.244,52.107 213.73,48.457 208.776,48.457C204.332,48.457 200.372,51.663 200.071,57.177L217.581,57.177ZM263.877,35.933L273.041,35.933L273.041,49.24L263.877,49.24L263.877,68.066C263.877,73.89 264.676,76.423 269.52,76.423C270.977,76.423 271.584,76.033 273.041,75.819L273.041,90.202C269.307,91.231 265.824,91.856 261.744,91.856C254.077,91.856 244.359,87.556 244.359,72.418L244.359,49.24L236.944,49.24L236.944,35.933L244.359,35.933L244.359,19.492L263.877,19.492L263.877,35.933ZM279.585,74.578L302.196,52.155L281.157,52.155L281.157,35.933L327.585,35.933L327.585,52.159L304.633,74.83L328.491,74.83L328.491,91.123L279.585,91.123L279.585,74.578ZM334.843,14.833L354.362,14.833L354.362,52.157L367.097,35.932L389.781,35.932L370.744,57.28L391.603,91.123L368.483,91.123L358.115,71.621L354.362,75.747L354.362,91.122L334.843,91.122L334.843,14.833ZM414.34,29.955L394.82,29.955L394.82,14.904L414.34,14.904L414.34,29.955ZM394.82,35.921L414.34,35.921L414.34,91.124L394.82,91.124L394.82,35.921ZM420.972,35.933L439.528,35.933L439.528,42.412L439.722,42.412C442.997,37.354 448.131,34.357 454.369,34.357C465.39,34.357 473.502,42.357 473.502,55.045L473.502,91.124L453.982,91.124L453.982,62.088C453.982,55.097 451.846,52.475 447.172,52.475C442.85,52.475 440.492,55.752 440.492,61.875L440.492,91.125L420.972,91.125L420.972,35.933ZM506.771,92.583C489.474,92.583 478.431,79.031 478.431,63.42C478.431,48.029 489.398,34.42 506.771,34.42C522.588,34.42 535.056,46.388 535.056,63.92C535.057,80.574 522.196,92.583 506.771,92.583ZM506.869,49.545C499.613,49.545 497.931,56.717 497.931,63.545C497.931,69.611 499.365,77.42 506.869,77.42C513.779,77.42 515.494,69.929 515.494,63.67C515.494,56.78 513.541,49.545 506.869,49.545Z" style="fill-rule:nonzero;"/>
                    </g>
                    <g transform="matrix(2,0,0,2,0,0)">
                        <path d="M96.628,53.3C96.628,77.097 77.336,96.388 53.54,96.388C29.744,96.388 10.452,77.097 10.452,53.3C10.452,29.503 29.743,10.211 53.54,10.211C77.337,10.211 96.628,29.503 96.628,53.3ZM53.54,15.287C32.546,15.287 15.527,32.306 15.527,53.3C15.527,74.294 32.546,91.312 53.54,91.312C74.534,91.312 91.553,74.293 91.553,53.3C91.553,32.307 74.534,15.287 53.54,15.287Z" style="fill:rgb(103,153,199);fill-rule:nonzero;stroke:rgb(41,113,153);stroke-width:0.75px;"/>
                        <g>
                            <path d="M53.54,10.211L53.54,96.388" style="fill:none;fill-rule:nonzero;stroke:rgb(41,113,153);stroke-width:0.75px;"/>
                            <path d="M10.452,53.3L96.628,53.3" style="fill:none;fill-rule:nonzero;stroke:rgb(41,113,153);stroke-width:0.75px;"/>
                        </g>
                    </g>
                    <g transform="matrix(2,0,0,2,0,0)">
                        <path d="M60.432,79.876L48.977,79.876L48.977,45.324L38.337,45.324L38.337,37.364C45.039,37.513 50.431,35.795 52.286,29.787L60.432,29.787L60.432,79.876Z" style="fill:none;fill-rule:nonzero;stroke:white;stroke-width:3.69px;stroke-linejoin:round;"/>
                    </g>
                    <g transform="matrix(2,0,0,2,0,0)">
                        <path d="M60.432,79.876L48.977,79.876L48.977,45.324L38.337,45.324L38.337,37.364C45.039,37.513 50.431,35.795 52.286,29.787L60.432,29.787L60.432,79.876Z" style="fill-rule:nonzero;"/>
                    </g>
                </g>
            </g>
        </g>
    </g>
</svg>
