<?xml version="1.0" encoding="UTF-8" standalone="no"?>
<!DOCTYPE svg PUBLIC "-//W3C//DTD SVG 1.1//EN" "http://www.w3.org/Graphics/SVG/1.1/DTD/svg11.dtd">
<svg width="100%" height="100%" viewBox="0 0 80 80" version="1.1" xmlns="http://www.w3.org/2000/svg" xmlns:xlink="http://www.w3.org/1999/xlink" xml:space="preserve" xmlns:serif="http://www.serif.com/" style="fill-rule:evenodd;clip-rule:evenodd;stroke-linejoin:round;stroke-miterlimit:2;">
    <g transform="matrix(1,0,0,1,-133.524,-324.907)">
        <g transform="matrix(0.929263,0,0,0.852464,57.3979,253.502)">
            <rect x="81.921" y="83.763" width="86.09" height="93.846" style="fill:none;"/>
        </g>
        <g transform="matrix(0.0369093,0,0,0.0369093,173.524,364.907)">
            <g transform="matrix(1,0,0,1,-1000,-230.363)">
                <clipPath id="_clip1">
                    <rect x="0" y="0" width="2000" height="460.726"/>
                </clipPath>
                <g clip-path="url(#_clip1)">
                    <g transform="matrix(2,0,0,2,323.198,-190.762)">
                        <path d="M94.026,154.07C94.026,114.456 52.009,95.381 2.091,95.381C-51.307,95.381 -100.301,119.038 -118.284,155.72C-123.247,165.493 -125.826,176.304 -125.812,187.266C-126.039,196.745 -123.416,206.073 -118.284,214.045C-110.579,225.422 -96.818,232.572 -76.632,232.572C-51.856,232.572 -32.221,218.996 -32.221,195.338C-32.221,195.338 -31.857,188.74 -39.562,188.74C-45.801,188.74 -47.455,193.139 -47.27,195.338C-46.348,213.863 -57.362,228.72 -76.998,228.72C-99.012,228.72 -108.195,210.012 -108.195,190.022C-108.195,149.12 -77.366,121.972 -45.253,110.236C-30.246,104.569 -14.309,101.766 1.732,101.977C38.065,101.977 67.793,115.919 67.793,153.338C67.793,184.513 41.553,211.108 10.17,213.495L11.454,209.279C17.879,186.35 25.769,161.225 38.611,142.699C39.35,141.592 40.631,139.763 42.1,137.931L40.267,135.728C37.521,137.394 34.884,139.231 32.37,141.229C-27.813,188.185 -29.641,320.239 -109.839,320.239C-112.601,320.239 -115.358,320.055 -118.095,319.688C-134.791,316.938 -143.605,305.747 -143.605,290.165C-143.605,287.046 -142.502,282.825 -142.502,280.444C-142.375,276.014 -145.863,272.321 -150.293,272.192L-151.309,272.192C-158.464,272.192 -161.401,277.87 -161.585,285.946C-162.133,309.239 -144.889,322.807 -118.276,325.38C-115.343,325.562 -112.406,325.743 -109.286,325.743C-46.715,325.743 -8.363,278.423 7.971,221.014C16.244,220.045 24.412,218.328 32.374,215.883C61.374,207.805 94.026,188.373 94.026,154.07ZM690.057,167.825L668.028,167.825L663.079,179.382L654.45,198.823L644.181,198.823L641.048,205.427L651.7,205.427L638.847,233.857C629.686,253.847 615.368,273.474 607.109,273.474C605.277,273.474 604.169,272.736 604.169,270.908C604.169,269.082 604.716,267.418 606.74,262.285C609.311,256.228 613.536,247.428 616.654,241.01C621.234,231.656 628.578,217.166 628.578,210.013C628.578,202.859 623.997,197.172 614.999,197.172C604.908,197.172 595.732,203.231 587.281,212.025L592.792,198.821L572.063,198.821L555.174,237.337C548.392,250.911 534.621,273.47 525.992,273.47C524.16,273.47 523.421,272.368 523.421,270.536C523.6,268.888 524.033,267.278 524.707,265.765C525.445,264.115 535.537,240.456 535.537,240.456L553.888,198.455L531.504,198.455L513.699,239.353C508.203,252.011 494.256,273.47 485.257,273.47C483.69,273.624 482.293,272.478 482.14,270.907L482.14,270.167C482.14,267.968 483.795,263.931 485.081,260.995L494.434,240.456L513.7,198.455L491.508,198.455L487.09,207.992C483.796,214.409 478.284,221.929 469.479,221.929C465.254,221.929 463.244,220.283 462.328,218.63C461.043,204.506 452.045,196.986 438.835,196.986C420.484,196.986 407.454,207.807 398.824,221.015C393.171,230.119 388.73,239.921 385.618,250.173C377.725,263.2 369.472,273.29 362.864,273.29C361.211,273.29 360.108,272.368 360.108,270.169C360.108,267.968 362.312,263.019 363.046,261.177L377.543,230.366C381.58,220.833 384.339,214.596 384.339,208.359C384.339,201.755 379.759,196.983 372.223,196.983C361.763,196.983 350.383,203.04 341.393,212.941C341.698,211.369 341.82,209.768 341.759,208.169C341.759,200.831 338.092,196.978 330.564,196.978C321.025,196.978 311.117,202.67 302.126,212.936L307.999,198.623L287.81,198.623L270.748,237.151C262.675,255.311 249.646,273.29 242.303,273.29C240.654,273.29 239.552,272.366 239.552,270.169C239.552,266.685 243.406,258.064 244.872,254.579L267.445,203.409C269.096,199.559 258.267,197.171 244.505,197.171C230.376,197.171 215.878,204.144 205.238,213.129C197.715,219.361 192.209,222.483 189.451,222.483C188.552,222.676 187.666,222.102 187.472,221.204C187.446,221.083 187.434,220.958 187.436,220.835C187.436,217.716 194.959,208.908 194.959,202.124C194.959,199.007 193.31,196.987 189.084,196.987C181.015,196.987 171.468,204.692 164.496,212.759L170.369,198.634L150.554,198.634L133.491,237.153C125.415,255.313 112.019,274.208 104.679,274.208C103.026,274.208 101.93,273.292 101.93,271.087C101.93,267.603 105.6,259.171 107.617,254.763L130.189,203.411C131.84,199.561 121.012,197.173 107.247,197.173C86.878,197.173 67.058,210.929 56.6,225.052C45.041,240.271 37.153,256.413 36.967,269.622C36.787,280.259 42.285,286.86 53.298,286.86C65.594,286.86 75.506,277.141 81.191,269.803C80.854,271.254 80.607,272.725 80.452,274.207C80.452,281.539 83.389,286.859 92.379,286.859C100.268,286.859 110.729,280.257 119.171,269.802L112.373,285.394L133.84,285.394L154.945,237.521C161.934,221.935 169.825,213.867 172.019,213.867C172.524,213.771 173.012,214.101 173.11,214.605C173.12,214.664 173.126,214.724 173.126,214.783C173.126,216.435 169.825,220.842 169.825,224.871C169.825,228.9 172.02,232.021 177.901,232.021C182.481,232.021 187.622,229.82 192.211,226.882C181.385,241.56 174.038,256.966 174.038,269.624C173.857,280.263 179.356,286.864 190.371,286.864C201.929,286.864 212.756,275.858 218.628,268.522C218.407,270.225 218.285,271.94 218.262,273.657C218.262,280.813 222.301,286.864 230.557,286.864C239.729,286.864 247.072,281.175 256.247,269.991L249.451,285.397L271.467,285.397L291.65,239.725C300.459,219.916 312.384,209.274 318.257,209.274C319.724,209.123 321.039,210.189 321.192,211.658C321.192,211.66 321.192,211.664 321.193,211.666L321.193,212.213C320.951,214.44 320.33,216.611 319.359,218.631L290.392,285.578L312.963,285.578L333.517,238.988C342.32,219 352.05,209.274 359.389,209.274C361.59,209.274 362.511,210.382 362.511,212.76C362.315,215.315 361.629,217.807 360.492,220.106L340.671,262.286C338.846,266.347 337.729,270.686 337.367,275.122C337.367,281.544 340.852,287.239 350.766,287.239C363.62,287.239 373.337,277.518 384.343,263.028L384.343,266.145C385.264,277.7 391.685,287.788 408.749,287.788C428.933,287.788 445.273,273.847 455.173,251.659C458.917,243.858 461.34,235.487 462.338,226.889C464.548,228.01 467.018,228.52 469.489,228.368C472.824,228.405 476.11,227.583 479.034,225.979L475.548,233.497C471.499,241.936 467.096,251.29 463.624,259.183C461.425,263.849 460.116,268.884 459.769,274.033C459.769,281.916 464.171,287.607 473.155,287.607C482.139,287.607 494.446,279.169 503.253,267.248L503.444,267.248C502.854,269.713 502.543,272.234 502.513,274.766C502.513,281.371 504.537,287.608 513.712,287.608C524.365,287.608 532.61,279.903 540.691,270.18L533.895,285.59L556.101,285.59L573.907,245.238C583.999,222.496 594.09,208.742 603.441,208.742C605.048,208.685 606.422,209.89 606.574,211.492L606.574,212.035C606.574,215.89 601.063,226.344 596.113,236.797C591.518,246.336 588.031,253.668 585.652,259.36C583.444,264.155 582.138,269.313 581.797,274.579C581.797,281.546 585.652,286.866 594.282,286.866C607.121,286.866 620.153,274.395 627.112,265.038C625.542,269.524 624.679,274.224 624.555,278.974C624.555,291.82 632.252,298.238 643.082,298.238C650.278,298.183 657.273,295.875 663.088,291.638C671.525,285.765 678.322,276.964 684.01,268.894L680.155,265.222C674.836,272.743 668.956,279.898 662.897,284.3C659.704,286.999 655.698,288.55 651.519,288.702C646.94,288.702 643.999,286.315 643.999,280.452C643.999,274.589 646.747,266.692 650.974,256.052C651.15,255.874 657.208,242.298 662.897,229.279C667.669,218.267 672.441,207.634 673.358,205.433L687.853,205.433L690.791,198.829L676.476,198.829L690.057,167.825ZM64.122,273.656C61.004,273.656 58.802,272.556 58.802,268.521C58.984,257.697 67.973,238.441 79.174,223.031C87.062,212.394 97.337,204.51 108.348,204.51L94.4,235.685C83.94,259.166 72.563,273.656 64.122,273.656ZM201.383,273.656C198.266,273.656 196.064,272.556 195.883,268.521C196.065,257.697 205.055,238.441 216.252,223.031C224.138,212.394 234.417,204.51 245.427,204.51L231.477,235.685C220.837,259.718 210.011,273.656 201.38,273.656L201.383,273.656ZM445.071,212.951C444.524,224.869 434.063,253.66 421.77,270.908C416.821,277.877 412.594,279.892 408.931,279.892C403.788,279.892 402.311,275.671 403.049,269.437C404.143,258.617 413.141,233.306 425.626,215.882C431.314,207.995 435.171,204.692 439.573,204.692C443.977,204.692 445.262,208.362 445.071,212.951ZM787.559,198.821L807.771,152.172L783.851,152.172L763.638,198.821L712.797,198.821L704.316,218.384L755.172,218.384L734.96,265.032L758.88,265.032L779.094,218.384L829.934,218.384L838.401,198.821L787.559,198.821Z" style="fill:rgb(0,100,255);fill-rule:nonzero;"/>
                    </g>
                </g>
            </g>
        </g>
    </g>
</svg>
