<?xml version="1.0" encoding="UTF-8" standalone="no"?>
<!DOCTYPE svg PUBLIC "-//W3C//DTD SVG 1.1//EN" "http://www.w3.org/Graphics/SVG/1.1/DTD/svg11.dtd">
<svg width="100%" height="100%" viewBox="0 0 80 80" version="1.1" xmlns="http://www.w3.org/2000/svg" xmlns:xlink="http://www.w3.org/1999/xlink" xml:space="preserve" xmlns:serif="http://www.serif.com/" style="fill-rule:evenodd;clip-rule:evenodd;stroke-linejoin:round;stroke-miterlimit:2;">
    <g transform="matrix(1,0,0,1,-323.436,-394.056)">
        <g transform="matrix(0.929263,0,0,0.852464,247.31,322.651)">
            <rect x="81.921" y="83.763" width="86.09" height="93.846" style="fill:none;"/>
        </g>
        <g transform="matrix(1,0,0,1,0,-7.10205)">
            <g transform="matrix(0.416297,0,0,0.416297,363.436,434.056)">
                <g transform="matrix(1,0,0,1,-84.6,-26.6)">
                    <g transform="matrix(2,0,0,2,0,0)">
                        <path d="M39.08,26.46C35.139,26.24 31.283,25.22 27.75,23.46C25.725,22.501 23.884,21.194 22.31,19.6C21.05,18.33 20.42,17.5 20.3,16.92C20.2,16.46 20.38,16.17 20.8,16.17C21.07,16.17 21.51,16.43 22.27,17.02C25.59,19.6 30.21,21.47 35.35,22.3C41.742,23.328 48.288,22.827 54.45,20.84C55.55,20.47 56.25,20.18 57.38,19.63C58.12,19.26 58.35,19.17 58.59,19.16C58.88,19.13 58.89,19.14 59.05,19.31C59.28,19.56 59.27,19.89 59.02,20.27C58.79,20.62 58.38,21.03 57.77,21.52C54.64,24.04 49.55,25.85 44.09,26.38C43.11,26.48 39.94,26.52 39.08,26.46ZM59.56,23.48C59.24,23.21 59.3,22.91 59.81,22.06C60.451,21.039 60.923,19.921 61.21,18.75C61.32,18.05 61.14,17.82 60.37,17.68C59.65,17.56 57.96,17.65 56.89,17.87C56.69,17.91 56.34,17.94 56.11,17.94C55.71,17.94 55.66,17.94 55.56,17.82C55.482,17.725 55.43,17.611 55.41,17.49C55.39,17.31 55.41,17.26 55.56,17.09C56.854,16.033 58.48,15.467 60.15,15.49C61.72,15.49 62.99,15.87 63.41,16.47C63.56,16.69 63.57,16.71 63.59,17.44C63.6,17.98 63.59,18.31 63.52,18.65C63.289,19.826 62.793,20.934 62.07,21.89C61.564,22.495 60.979,23.03 60.33,23.48C59.93,23.68 59.78,23.68 59.56,23.48ZM0.25,15.84C0.188,15.822 0.13,15.791 0.08,15.75C0,15.7 0,15.35 0,9.7C0,6.41 0.02,3.7 0.03,3.67C0.12,3.54 0.28,3.51 1.06,3.51C1.51,3.51 1.9,3.53 1.94,3.54C2.05,3.58 2.09,3.7 2.21,4.28C2.27,4.58 2.34,4.84 2.36,4.86C2.38,4.88 2.45,4.78 2.52,4.64C2.68,4.34 3.15,3.84 3.46,3.67C3.974,3.363 4.578,3.243 5.17,3.33C6.53,3.54 7.47,4.7 7.89,6.66C7.99,7.16 8.02,8.82 7.93,9.46C7.828,10.478 7.432,11.444 6.79,12.24C6.22,12.84 5.69,13.11 4.96,13.14C4.43,13.18 4.08,13.12 3.68,12.92C3.262,12.687 2.908,12.353 2.65,11.95C2.597,11.854 2.529,11.766 2.45,11.69C2.43,11.69 2.41,12.56 2.41,13.63C2.41,14.71 2.39,15.62 2.37,15.68C2.3,15.85 2.12,15.88 1.19,15.88C0.72,15.88 0.29,15.87 0.25,15.85L0.25,15.84ZM4.35,11.02C4.68,10.92 4.99,10.58 5.17,10.16C5.37,9.68 5.45,9.21 5.48,8.46C5.53,7.16 5.23,6.06 4.73,5.63C4.57,5.49 4.15,5.33 3.96,5.33C2.99,5.33 2.36,6.44 2.36,8.16C2.36,9.39 2.61,10.26 3.08,10.74C3.42,11.07 3.89,11.18 4.36,11.02L4.35,11.02ZM36.35,13.11C34.757,12.786 33.504,11.54 33.17,9.95C32.6,7.69 33.22,5.31 34.69,4.12C36.04,3.001 38.015,3.005 39.36,4.13C39.92,4.63 40.25,5.09 40.56,5.85C40.81,6.47 40.91,7.01 40.94,7.87C40.96,8.27 40.95,8.64 40.94,8.7C40.87,8.97 41.01,8.95 38.16,8.95C36.73,8.95 35.55,8.97 35.53,8.99C35.48,9.07 35.65,9.87 35.78,10.22C35.96,10.69 36.3,11.05 36.65,11.15C37.4,11.36 38.12,11.02 38.36,10.33C38.53,9.86 38.55,9.83 38.74,9.81C38.88,9.8 39.9,10.01 40.52,10.16C40.78,10.23 40.81,10.36 40.64,10.78C40.46,11.26 40.22,11.65 39.89,12C39.203,12.758 38.212,13.173 37.19,13.13C36.84,13.14 36.46,13.13 36.34,13.11L36.35,13.11ZM38.45,7.21C38.45,6.76 38.17,5.93 37.9,5.61C37.684,5.383 37.384,5.253 37.07,5.25C36.6,5.25 36.24,5.47 35.97,5.92C35.81,6.21 35.62,6.77 35.57,7.12L35.54,7.35L38.45,7.35L38.45,7.21ZM9.28,12.84L9.16,12.74L9.16,8.2C9.16,4.02 9.16,3.64 9.23,3.59C9.33,3.51 10.89,3.47 11.08,3.55C11.23,3.61 11.28,3.72 11.39,4.33C11.44,4.6 11.49,4.83 11.52,4.85C11.53,4.87 11.62,4.75 11.7,4.59C11.9,4.22 12.35,3.74 12.66,3.59C13.244,3.316 13.905,3.253 14.53,3.41C14.9,3.51 15.05,3.64 15.05,3.85C15.05,4 14.75,5.25 14.62,5.66C14.52,5.96 14.46,5.99 14.02,5.82C13.692,5.672 13.339,5.584 12.98,5.56C12.31,5.56 11.88,5.91 11.68,6.66C11.6,6.89 11.59,7.26 11.57,9.86C11.609,10.857 11.582,11.856 11.49,12.85C11.44,12.89 11.17,12.91 10.41,12.92C9.43,12.93 9.39,12.92 9.28,12.84ZM15.88,12.88C15.826,12.864 15.78,12.828 15.75,12.78C15.73,12.73 15.7,4.59 15.72,3.76C15.72,3.53 15.86,3.5 16.98,3.5C18.09,3.5 18.11,3.51 18.13,3.8L18.13,8.34C18.13,12.69 18.13,12.75 18.04,12.84C17.96,12.92 17.9,12.93 16.96,12.93C16.41,12.93 15.92,12.91 15.87,12.88L15.88,12.88ZM19.8,12.88C19.733,12.85 19.68,12.797 19.65,12.73C19.62,12.65 19.61,10.97 19.61,8.15C19.61,4.38 19.61,3.69 19.67,3.61C19.73,3.53 19.8,3.52 20.59,3.51C21.17,3.5 21.49,3.51 21.57,3.55C21.7,3.6 21.72,3.65 21.87,4.45L21.98,4.87C22,4.88 22.08,4.76 22.17,4.59C22.45,4.03 22.91,3.61 23.47,3.41C23.68,3.33 23.84,3.31 24.25,3.31C24.8,3.31 25.02,3.35 25.48,3.58C25.881,3.831 26.217,4.174 26.46,4.58C26.56,4.75 26.64,4.88 26.66,4.88C26.67,4.88 26.75,4.79 26.83,4.68C27.208,4.093 27.766,3.644 28.42,3.4C28.944,3.257 29.496,3.257 30.02,3.4C30.94,3.72 31.48,4.4 31.82,5.67C31.9,6.02 31.91,6.12 31.92,9.37C31.94,12.27 31.92,12.74 31.87,12.82C31.81,12.9 31.75,12.91 30.79,12.92C29.81,12.93 29.76,12.93 29.65,12.84L29.53,12.74L29.51,9.72C29.5,6.74 29.5,6.69 29.4,6.4C29.2,5.8 28.87,5.54 28.32,5.54C27.76,5.54 27.36,5.84 27.15,6.43C27,6.85 26.98,7.39 26.98,10.1C26.98,12.69 26.98,12.75 26.88,12.84C26.8,12.92 26.74,12.93 25.81,12.93C24.81,12.93 24.7,12.91 24.61,12.75C24.554,11.784 24.537,10.817 24.56,9.85C24.56,7.05 24.55,6.71 24.4,6.25C24.2,5.61 23.4,5.33 22.77,5.68C22.36,5.9 22.14,6.36 22.07,7.17C22.04,7.4 22.02,8.75 22.02,10.17L22.02,12.75L21.92,12.84C21.82,12.92 21.77,12.93 20.86,12.93C20.33,12.93 19.86,12.9 19.8,12.88ZM16.52,2.8C16.125,2.675 15.799,2.393 15.62,2.02C15.477,1.629 15.477,1.201 15.62,0.81C15.75,0.52 16.03,0.24 16.32,0.11C16.714,-0.032 17.146,-0.032 17.54,0.11C17.86,0.26 18.18,0.61 18.29,0.95C18.39,1.29 18.36,1.77 18.21,2.1C18.07,2.4 17.74,2.68 17.41,2.78C17.17,2.85 16.71,2.86 16.52,2.8ZM60.43,13.1C59.31,12.89 58.37,11.76 57.99,10.18C57.731,8.955 57.718,7.69 57.95,6.46C58.26,5.03 58.95,3.98 59.9,3.54C61.027,2.962 62.425,3.352 63.09,4.43C63.21,4.61 63.33,4.75 63.35,4.73C63.38,4.72 63.4,3.92 63.4,2.7C63.4,0.73 63.4,0.69 63.49,0.6C63.58,0.51 63.62,0.5 64.62,0.52C64.988,0.494 65.358,0.517 65.72,0.59C65.82,0.69 65.84,1.61 65.82,7.19L65.8,12.73L65.7,12.83C65.62,12.93 65.59,12.93 64.78,12.93C64.476,12.939 64.172,12.929 63.87,12.9C63.75,12.85 63.67,12.66 63.57,12.09C63.543,11.903 63.499,11.719 63.44,11.54L63.29,11.8C63.09,12.18 62.56,12.69 62.14,12.9C61.96,12.99 61.7,13.08 61.57,13.1C61.28,13.16 60.73,13.16 60.43,13.1ZM62.39,10.98C63.12,10.63 63.5,9.47 63.42,7.88C63.35,6.45 62.92,5.61 62.17,5.4C62,5.338 61.814,5.331 61.64,5.38C60.91,5.54 60.51,6.19 60.36,7.43C60.269,8.206 60.316,8.991 60.5,9.75C60.67,10.39 60.97,10.81 61.39,11.01C61.64,11.13 62.12,11.11 62.39,10.98ZM70.36,13.08C69.963,13.014 69.583,12.871 69.24,12.66C68.101,11.944 67.341,10.754 67.17,9.42C67.07,8.83 67.07,7.73 67.17,7.15C67.357,5.831 68.076,4.645 69.16,3.87C69.765,3.505 70.454,3.302 71.16,3.28C71.54,3.28 72.16,3.4 72.52,3.54C73.492,3.97 74.255,4.769 74.64,5.76C74.94,6.47 75.06,7.13 75.07,8.06C75.07,8.69 75.07,8.77 74.99,8.86C74.91,8.96 74.89,8.96 72.28,8.96L69.65,8.96L69.65,9.11C69.65,9.38 69.77,9.92 69.92,10.26C70.09,10.67 70.3,10.93 70.6,11.08C70.92,11.25 71.43,11.25 71.78,11.1C72.06,10.98 72.38,10.64 72.48,10.37L72.61,10C72.66,9.84 72.69,9.82 72.83,9.81C73.03,9.79 74.63,10.14 74.78,10.23C74.93,10.33 74.89,10.53 74.64,11.06C74.392,11.586 74.026,12.048 73.57,12.41C72.87,12.93 72.31,13.11 71.32,13.13C70.87,13.14 70.56,13.13 70.36,13.09L70.36,13.08ZM72.55,7.3C72.59,7.27 72.59,7.2 72.53,6.87C72.38,6.08 72.07,5.55 71.63,5.35C70.98,5.05 70.23,5.45 69.91,6.27C69.77,6.67 69.65,7.24 69.71,7.3C69.77,7.36 72.45,7.36 72.55,7.3ZM79.26,13.08C78.075,12.761 77.088,11.938 76.56,10.83C76.323,10.311 76.155,9.763 76.06,9.2C75.79,7.3 76.33,5.46 77.47,4.37C77.972,3.853 78.622,3.504 79.33,3.37C81.85,2.86 84.03,4.92 84.15,7.95C84.225,9.145 83.924,10.334 83.29,11.35C82.768,12.132 82.001,12.72 81.11,13.02C80.502,13.155 79.875,13.175 79.26,13.08ZM80.61,11.06C81.02,10.86 81.33,10.36 81.5,9.66C81.58,9.3 81.6,9.11 81.6,8.24C81.6,7.43 81.58,7.17 81.52,6.9C81.29,5.93 80.9,5.42 80.3,5.29C79.5,5.13 78.88,5.72 78.65,6.84C78.37,8.19 78.54,9.87 79.03,10.61C79.17,10.82 79.49,11.08 79.69,11.15C79.89,11.21 80.42,11.17 80.61,11.06ZM47.12,12.84C47.03,12.74 46.99,12.62 46.72,11.61C46.355,10.271 45.981,8.934 45.6,7.6L44.75,4.54C44.64,4.15 44.55,3.8 44.55,3.74C44.55,3.54 44.67,3.51 45.8,3.51C46.75,3.51 46.87,3.52 46.96,3.59C47.04,3.66 47.11,3.92 47.41,5.26L48.03,8.07C48.26,9.07 48.53,10.31 48.53,10.37C48.53,10.52 48.6,10.37 48.65,10.12L49.39,6.77C49.99,4.07 50.07,3.69 50.15,3.61C50.21,3.55 50.37,3.53 51.28,3.52C52.42,3.52 52.55,3.53 52.58,3.72C52.59,3.82 52.44,4.39 51.76,6.82L50.79,10.3C50.64,10.87 50.52,11.28 50.17,12.5C50.12,12.67 50.05,12.83 50.01,12.87C49.96,12.93 49.75,12.94 48.57,12.94C47.27,12.94 47.19,12.94 47.12,12.85L47.12,12.84ZM54.09,12.84L53.97,12.74L53.98,8.21C53.99,3.94 54,3.68 54.08,3.61C54.15,3.54 54.26,3.53 55.15,3.51C56,3.51 56.18,3.51 56.29,3.57L56.43,3.64L56.43,8.14C56.43,11.38 56.41,12.69 56.38,12.77C56.348,12.831 56.295,12.877 56.23,12.9C56.18,12.92 55.7,12.93 55.17,12.93C54.27,12.93 54.2,12.93 54.09,12.83L54.09,12.84ZM54.79,2.79C54.39,2.69 53.99,2.32 53.87,1.93C53.77,1.66 53.77,1.23 53.87,0.93C53.94,0.65 54.26,0.28 54.53,0.14C54.8,-0 55.49,-0.02 55.78,0.1C56.11,0.25 56.32,0.44 56.48,0.74C56.59,0.99 56.61,1.06 56.61,1.42C56.61,1.9 56.52,2.12 56.26,2.4C55.99,2.68 55.71,2.8 55.29,2.82C55.09,2.82 54.87,2.82 54.79,2.79Z" style="fill:rgb(7,121,255);fill-rule:nonzero;"/>
                    </g>
                </g>
            </g>
            <g transform="matrix(0.998734,0.0503016,-0.0503016,0.998734,20.209,-3.604)">
                <g transform="matrix(0.980266,0.197683,-0.197683,0.980266,94.385,-59.465)">
                    <text x="345.035px" y="443.014px" style="font-family:'FiraSansCondensed-SemiBold', 'Fira Sans Condensed', sans-serif;font-weight:600;font-stretch:condensed;font-size:10px;">C</text>
                </g>
                <g transform="matrix(0.992186,0.124764,-0.124764,0.992186,58.1417,-40.2279)">
                    <text x="350.242px" y="444.078px" style="font-family:'FiraSansCondensed-SemiBold', 'Fira Sans Condensed', sans-serif;font-weight:600;font-stretch:condensed;font-size:10px;">H</text>
                </g>
                <g transform="matrix(0.998632,0.0522935,-0.0522935,0.998632,23.7491,-18.0253)">
                    <text x="356.334px" y="444.827px" style="font-family:'FiraSansCondensed-SemiBold', 'Fira Sans Condensed', sans-serif;font-weight:600;font-stretch:condensed;font-size:10px;">A</text>
                </g>
                <g transform="matrix(0.999863,-0.016537,0.016537,0.999863,-7.31147,6.04392)">
                    <text x="361.798px" y="445.12px" style="font-family:'FiraSansCondensed-SemiBold', 'Fira Sans Condensed', sans-serif;font-weight:600;font-stretch:condensed;font-size:10px;">N</text>
                </g>
                <g transform="matrix(0.996359,-0.0852553,0.0852553,0.996359,-36.6004,32.9846)">
                    <text x="367.887px" y="445.015px" style="font-family:'FiraSansCondensed-SemiBold', 'Fira Sans Condensed', sans-serif;font-weight:600;font-stretch:condensed;font-size:10px;">N</text>
                </g>
                <g transform="matrix(0.98954,-0.144259,0.144259,0.98954,-60.2097,58.587)">
                    <text x="373.896px" y="444.484px" style="font-family:'FiraSansCondensed-SemiBold', 'Fira Sans Condensed', sans-serif;font-weight:600;font-stretch:condensed;font-size:10px;">E</text>
                </g>
                <g transform="matrix(0.981442,-0.191758,0.191758,0.981442,-78.081,80.8224)">
                    <text x="378.529px" y="443.817px" style="font-family:'FiraSansCondensed-SemiBold', 'Fira Sans Condensed', sans-serif;font-weight:600;font-stretch:condensed;font-size:10px;">L</text>
                </g>
                <g transform="matrix(0.972558,-0.232659,0.232659,0.972558,-92.5614,101.222)">
                    <text x="382.815px" y="442.994px" style="font-family:'FiraSansCondensed-SemiBold', 'Fira Sans Condensed', sans-serif;font-weight:600;font-stretch:condensed;font-size:10px;">S</text>
                </g>
            </g>
        </g>
    </g>
</svg>
