<?xml version="1.0" encoding="UTF-8" standalone="no"?>
<!DOCTYPE svg PUBLIC "-//W3C//DTD SVG 1.1//EN" "http://www.w3.org/Graphics/SVG/1.1/DTD/svg11.dtd">
<svg width="100%" height="100%" viewBox="0 0 80 80" version="1.1" xmlns="http://www.w3.org/2000/svg" xmlns:xlink="http://www.w3.org/1999/xlink" xml:space="preserve" xmlns:serif="http://www.serif.com/" style="fill-rule:evenodd;clip-rule:evenodd;stroke-linejoin:round;stroke-miterlimit:2;">
    <g transform="matrix(1,0,0,1,-34.7457,-132.686)">
        <g transform="matrix(0.929263,0,0,0.852464,-41.3805,61.2806)">
            <rect x="81.921" y="83.763" width="86.09" height="93.846" style="fill:none;"/>
        </g>
        <g transform="matrix(0.0326336,0,0,0.0326336,74.7457,172.686)">
            <g transform="matrix(1,0,0,1,-1046.16,-300)">
                <clipPath id="_clip1">
                    <rect x="0" y="0" width="2092.32" height="600"/>
                </clipPath>
                <g clip-path="url(#_clip1)">
                    <g id="path22" transform="matrix(2,0,0,2,0,0)">
                        <path d="M89.681,292.224C117.921,292.224 131.018,276.262 142.068,254.161L192,154.297L217.375,245.566C227.198,280.764 240.294,292.224 265.26,292.224C290.226,292.224 306.188,284.038 320.103,250.068L357.757,157.572C359.803,243.929 422.013,300 506.734,300C591.454,300 649.162,244.748 661.031,174.352L674.128,248.022C679.858,278.718 694.183,292.224 718.739,292.224C743.296,292.224 757.621,282.401 769.899,259.891L827.198,154.297L849.708,248.84C856.666,277.49 869.353,292.224 894.728,292.224C920.103,292.224 932.382,281.992 943.432,260.3L1040.02,72.033C1044.11,64.35 1046.22,55.769 1046.16,47.067C1046.16,24.966 1028.97,7.776 1003.6,7.776C978.221,7.776 965.942,20.055 956.12,41.746L910.281,139.973L885.724,43.383C880.404,21.692 868.125,7.776 843.978,7.776C828.425,7.776 812.873,12.278 798.548,39.291L746.161,140.382L728.153,44.202C724.06,18.827 706.052,7.776 684.769,7.776C684.218,7.755 683.665,7.744 683.113,7.744C659.987,7.744 640.958,26.773 640.958,49.899C640.958,50.319 640.964,50.74 640.977,51.16C640.943,55.962 641.354,60.758 642.204,65.484L643.842,73.67C622.15,32.742 577.539,-0 516.556,-0C474.81,-0 427.334,15.962 397.866,54.843C398.206,51.581 398.343,48.3 398.275,45.02C397.866,23.738 383.951,7.776 358.576,7.776C333.2,7.776 321.741,18.827 312.736,41.746L272.627,146.93L246.024,44.202C240.294,22.92 229.244,7.776 205.097,7.776C180.949,7.776 169.08,15.553 156.802,42.565L110.963,147.749L88.043,44.202C82.314,18.827 64.305,7.776 42.614,7.776C20.922,7.776 -1.179,25.375 0.049,51.16C0.066,54.902 0.617,58.623 1.686,62.21L42.204,242.292C48.344,268.486 58.166,292.224 89.681,292.224ZM443.705,152.66C443.705,113.37 473.173,82.265 510.008,82.265C546.843,82.265 576.311,110.096 576.311,150.614C576.311,191.132 548.889,217.735 510.008,217.735C471.127,217.735 443.705,189.086 443.705,152.66Z" style="fill:url(#_Linear2);fill-rule:nonzero;"/>
                    </g>
                </g>
            </g>
        </g>
    </g>
    <defs>
        <linearGradient id="_Linear2" x1="0" y1="0" x2="1" y2="0" gradientUnits="userSpaceOnUse" gradientTransform="matrix(1045.95,0,0,1045.95,0.0489094,150.164)"><stop offset="0" style="stop-color:rgb(12,36,38);stop-opacity:1"/><stop offset="0.18" style="stop-color:rgb(11,45,47);stop-opacity:1"/><stop offset="0.48" style="stop-color:rgb(8,68,71);stop-opacity:1"/><stop offset="0.86" style="stop-color:rgb(2,105,111);stop-opacity:1"/><stop offset="1" style="stop-color:rgb(0,121,127);stop-opacity:1"/></linearGradient>
    </defs>
</svg>
